<mxfile host="Electron" modified="2023-08-17T07:41:03.171Z" agent="Mozilla/5.0 (Windows NT 10.0; Win64; x64) AppleWebKit/537.36 (KHTML, like Gecko) draw.io/21.6.1 Chrome/112.0.5615.204 Electron/24.6.1 Safari/537.36" etag="fxdWEuL7TJGplLfb9KdI" version="21.6.1" type="device">
  <diagram id="QQNucZEWwQuZAoMuL0eo" name="版本链比对流程">
    <mxGraphModel dx="2231" dy="823" grid="1" gridSize="10" guides="1" tooltips="1" connect="1" arrows="1" fold="1" page="1" pageScale="1" pageWidth="827" pageHeight="1169" math="0" shadow="0">
      <root>
        <mxCell id="0" />
        <mxCell id="1" parent="0" />
        <mxCell id="10XfThxbCA74bScCRpUW-12" value="" style="rounded=0;whiteSpace=wrap;html=1;fontSize=14;fillColor=#FFFFCC;" parent="1" vertex="1">
          <mxGeometry x="2300" width="260" height="1180" as="geometry" />
        </mxCell>
        <mxCell id="10XfThxbCA74bScCRpUW-10" value="" style="rounded=0;whiteSpace=wrap;html=1;fontSize=14;fillColor=#CCFFE6;" parent="1" vertex="1">
          <mxGeometry x="1750" width="540" height="1180" as="geometry" />
        </mxCell>
        <mxCell id="0qLtHgP30Eh2IL9KS39c-17" value="" style="shape=partialRectangle;whiteSpace=wrap;html=1;left=0;right=0;fillColor=none;sketch=0;fontSize=16;strokeWidth=2;" parent="1" vertex="1">
          <mxGeometry x="960" y="115" width="1580" height="60" as="geometry" />
        </mxCell>
        <mxCell id="MeZA9_PLkz-uhG6X49Gn-3" value="&lt;font style=&quot;font-size: 20px;&quot;&gt;Account 表&lt;/font&gt;" style="text;html=1;strokeColor=none;fillColor=none;align=center;verticalAlign=middle;whiteSpace=wrap;rounded=0;sketch=1;fillStyle=auto;" parent="1" vertex="1">
          <mxGeometry x="220" y="50" width="170" height="60" as="geometry" />
        </mxCell>
        <mxCell id="MeZA9_PLkz-uhG6X49Gn-23" value="" style="group;sketch=1;" parent="1" vertex="1" connectable="0">
          <mxGeometry x="140" y="180" width="450" height="40" as="geometry" />
        </mxCell>
        <mxCell id="MeZA9_PLkz-uhG6X49Gn-18" value="1" style="rounded=0;whiteSpace=wrap;html=1;sketch=1;fillStyle=auto;fontSize=15;gradientColor=none;" parent="MeZA9_PLkz-uhG6X49Gn-23" vertex="1">
          <mxGeometry width="90" height="40" as="geometry" />
        </mxCell>
        <mxCell id="MeZA9_PLkz-uhG6X49Gn-19" value="MooN" style="rounded=0;whiteSpace=wrap;html=1;sketch=1;fillStyle=auto;fontSize=15;gradientColor=none;" parent="MeZA9_PLkz-uhG6X49Gn-23" vertex="1">
          <mxGeometry x="90" width="90" height="40" as="geometry" />
        </mxCell>
        <mxCell id="MeZA9_PLkz-uhG6X49Gn-20" value="0" style="rounded=0;whiteSpace=wrap;html=1;sketch=1;fillStyle=auto;fontSize=15;gradientColor=none;" parent="MeZA9_PLkz-uhG6X49Gn-23" vertex="1">
          <mxGeometry x="180" width="90" height="40" as="geometry" />
        </mxCell>
        <mxCell id="MeZA9_PLkz-uhG6X49Gn-21" value="80" style="rounded=0;whiteSpace=wrap;html=1;sketch=1;fillStyle=auto;fontSize=15;gradientColor=none;" parent="MeZA9_PLkz-uhG6X49Gn-23" vertex="1">
          <mxGeometry x="270" width="90" height="40" as="geometry" />
        </mxCell>
        <mxCell id="MeZA9_PLkz-uhG6X49Gn-22" value="" style="rounded=0;whiteSpace=wrap;html=1;sketch=1;fillStyle=auto;fontSize=15;gradientColor=none;" parent="MeZA9_PLkz-uhG6X49Gn-23" vertex="1">
          <mxGeometry x="360" width="90" height="40" as="geometry" />
        </mxCell>
        <mxCell id="0qLtHgP30Eh2IL9KS39c-2" value="&lt;font style=&quot;font-size: 20px;&quot;&gt;id&lt;/font&gt;" style="text;html=1;strokeColor=none;fillColor=none;align=center;verticalAlign=middle;whiteSpace=wrap;rounded=0;sketch=1;" parent="1" vertex="1">
          <mxGeometry x="160" y="130" width="60" height="30" as="geometry" />
        </mxCell>
        <mxCell id="0qLtHgP30Eh2IL9KS39c-3" value="&lt;font style=&quot;font-size: 20px;&quot;&gt;name&lt;/font&gt;" style="text;html=1;strokeColor=none;fillColor=none;align=center;verticalAlign=middle;whiteSpace=wrap;rounded=0;sketch=1;" parent="1" vertex="1">
          <mxGeometry x="250" y="130" width="60" height="30" as="geometry" />
        </mxCell>
        <mxCell id="0qLtHgP30Eh2IL9KS39c-4" value="&lt;font style=&quot;font-size: 20px;&quot;&gt;balance&lt;/font&gt;" style="text;html=1;strokeColor=none;fillColor=none;align=center;verticalAlign=middle;whiteSpace=wrap;rounded=0;sketch=1;" parent="1" vertex="1">
          <mxGeometry x="335" y="130" width="60" height="30" as="geometry" />
        </mxCell>
        <mxCell id="0qLtHgP30Eh2IL9KS39c-5" value="&lt;font style=&quot;font-size: 20px;&quot;&gt;trx_id&lt;/font&gt;" style="text;html=1;strokeColor=none;fillColor=none;align=center;verticalAlign=middle;whiteSpace=wrap;rounded=0;sketch=1;" parent="1" vertex="1">
          <mxGeometry x="425" y="130" width="60" height="30" as="geometry" />
        </mxCell>
        <mxCell id="0qLtHgP30Eh2IL9KS39c-6" value="&lt;font style=&quot;font-size: 20px;&quot;&gt;roll_pointer&lt;/font&gt;" style="text;html=1;strokeColor=none;fillColor=none;align=center;verticalAlign=middle;whiteSpace=wrap;rounded=0;sketch=1;" parent="1" vertex="1">
          <mxGeometry x="485" y="130" width="130" height="30" as="geometry" />
        </mxCell>
        <mxCell id="0qLtHgP30Eh2IL9KS39c-7" style="edgeStyle=orthogonalEdgeStyle;rounded=0;orthogonalLoop=1;jettySize=auto;html=1;exitX=1;exitY=0.5;exitDx=0;exitDy=0;fontSize=20;" parent="1" source="MeZA9_PLkz-uhG6X49Gn-22" target="0qLtHgP30Eh2IL9KS39c-8" edge="1">
          <mxGeometry relative="1" as="geometry">
            <mxPoint x="650" y="90" as="targetPoint" />
          </mxGeometry>
        </mxCell>
        <mxCell id="0qLtHgP30Eh2IL9KS39c-8" value="&lt;font style=&quot;font-size: 18px;&quot;&gt;insert undo log&lt;/font&gt;" style="rounded=0;whiteSpace=wrap;html=1;sketch=1;fontSize=20;fillColor=#ffcc99;strokeColor=#36393d;" parent="1" vertex="1">
          <mxGeometry x="615" y="70" width="140" height="60" as="geometry" />
        </mxCell>
        <mxCell id="0qLtHgP30Eh2IL9KS39c-9" value="操作时间线&lt;br&gt;假设开始时 &lt;br&gt;balance 值为 0" style="text;html=1;strokeColor=none;fillColor=none;align=center;verticalAlign=middle;whiteSpace=wrap;rounded=0;sketch=1;fontSize=18;" parent="1" vertex="1">
          <mxGeometry x="770" y="30" width="260" height="40" as="geometry" />
        </mxCell>
        <mxCell id="0qLtHgP30Eh2IL9KS39c-19" value="时间点1" style="rounded=1;whiteSpace=wrap;html=1;sketch=1;fontSize=16;fillColor=#e1d5e7;strokeColor=#9673a6;" parent="1" vertex="1">
          <mxGeometry x="850" y="125" width="80" height="40" as="geometry" />
        </mxCell>
        <mxCell id="0qLtHgP30Eh2IL9KS39c-20" value="时间点2" style="rounded=1;whiteSpace=wrap;html=1;sketch=1;fontSize=16;fillColor=#e1d5e7;strokeColor=#9673a6;" parent="1" vertex="1">
          <mxGeometry x="850" y="210" width="80" height="40" as="geometry" />
        </mxCell>
        <mxCell id="0qLtHgP30Eh2IL9KS39c-23" value="update 语句" style="rounded=1;whiteSpace=wrap;html=1;sketch=1;fontSize=16;fillColor=#dae8fc;strokeColor=#6c8ebf;" parent="1" vertex="1">
          <mxGeometry x="1042.5" y="212.5" width="105" height="35" as="geometry" />
        </mxCell>
        <mxCell id="0qLtHgP30Eh2IL9KS39c-27" value="时间点3" style="rounded=1;whiteSpace=wrap;html=1;sketch=1;fontSize=16;fillColor=#e1d5e7;strokeColor=#9673a6;" parent="1" vertex="1">
          <mxGeometry x="850" y="300" width="80" height="40" as="geometry" />
        </mxCell>
        <mxCell id="0qLtHgP30Eh2IL9KS39c-31" value="时间点4" style="rounded=1;whiteSpace=wrap;html=1;sketch=1;fontSize=16;fillColor=#e1d5e7;strokeColor=#9673a6;" parent="1" vertex="1">
          <mxGeometry x="850" y="415" width="80" height="40" as="geometry" />
        </mxCell>
        <mxCell id="0qLtHgP30Eh2IL9KS39c-33" value="" style="group;sketch=1;" parent="1" vertex="1" connectable="0">
          <mxGeometry x="140" y="262.5" width="450" height="40" as="geometry" />
        </mxCell>
        <mxCell id="0qLtHgP30Eh2IL9KS39c-34" value="1" style="rounded=0;whiteSpace=wrap;html=1;sketch=1;fillStyle=auto;fontSize=15;gradientColor=none;" parent="0qLtHgP30Eh2IL9KS39c-33" vertex="1">
          <mxGeometry width="90" height="40" as="geometry" />
        </mxCell>
        <mxCell id="0qLtHgP30Eh2IL9KS39c-35" value="MooN" style="rounded=0;whiteSpace=wrap;html=1;sketch=1;fillStyle=auto;fontSize=15;gradientColor=none;" parent="0qLtHgP30Eh2IL9KS39c-33" vertex="1">
          <mxGeometry x="90" width="90" height="40" as="geometry" />
        </mxCell>
        <mxCell id="0qLtHgP30Eh2IL9KS39c-36" value="500" style="rounded=0;whiteSpace=wrap;html=1;sketch=1;fillStyle=auto;fontSize=15;gradientColor=none;" parent="0qLtHgP30Eh2IL9KS39c-33" vertex="1">
          <mxGeometry x="180" width="90" height="40" as="geometry" />
        </mxCell>
        <mxCell id="0qLtHgP30Eh2IL9KS39c-37" value="300" style="rounded=0;whiteSpace=wrap;html=1;sketch=1;fillStyle=auto;fontSize=15;gradientColor=none;" parent="0qLtHgP30Eh2IL9KS39c-33" vertex="1">
          <mxGeometry x="270" width="90" height="40" as="geometry" />
        </mxCell>
        <mxCell id="0qLtHgP30Eh2IL9KS39c-38" value="" style="rounded=0;whiteSpace=wrap;html=1;sketch=1;fillStyle=auto;fontSize=15;gradientColor=none;" parent="0qLtHgP30Eh2IL9KS39c-33" vertex="1">
          <mxGeometry x="360" width="90" height="40" as="geometry" />
        </mxCell>
        <mxCell id="0qLtHgP30Eh2IL9KS39c-39" style="edgeStyle=orthogonalEdgeStyle;rounded=0;orthogonalLoop=1;jettySize=auto;html=1;entryX=0;entryY=0.5;entryDx=0;entryDy=0;fontSize=16;" parent="1" source="0qLtHgP30Eh2IL9KS39c-38" target="MeZA9_PLkz-uhG6X49Gn-18" edge="1">
          <mxGeometry relative="1" as="geometry">
            <Array as="points">
              <mxPoint x="545" y="240" />
              <mxPoint x="120" y="240" />
              <mxPoint x="120" y="200" />
            </Array>
          </mxGeometry>
        </mxCell>
        <mxCell id="0qLtHgP30Eh2IL9KS39c-41" value="" style="group;sketch=1;" parent="1" vertex="1" connectable="0">
          <mxGeometry x="140" y="337.5" width="450" height="40" as="geometry" />
        </mxCell>
        <mxCell id="0qLtHgP30Eh2IL9KS39c-42" value="1" style="rounded=0;whiteSpace=wrap;html=1;sketch=1;fillStyle=auto;fontSize=15;gradientColor=none;" parent="0qLtHgP30Eh2IL9KS39c-41" vertex="1">
          <mxGeometry width="90" height="40" as="geometry" />
        </mxCell>
        <mxCell id="0qLtHgP30Eh2IL9KS39c-43" value="MooN" style="rounded=0;whiteSpace=wrap;html=1;sketch=1;fillStyle=auto;fontSize=15;gradientColor=none;" parent="0qLtHgP30Eh2IL9KS39c-41" vertex="1">
          <mxGeometry x="90" width="90" height="40" as="geometry" />
        </mxCell>
        <mxCell id="0qLtHgP30Eh2IL9KS39c-44" value="800" style="rounded=0;whiteSpace=wrap;html=1;sketch=1;fillStyle=auto;fontSize=15;gradientColor=none;" parent="0qLtHgP30Eh2IL9KS39c-41" vertex="1">
          <mxGeometry x="180" width="90" height="40" as="geometry" />
        </mxCell>
        <mxCell id="0qLtHgP30Eh2IL9KS39c-45" value="100" style="rounded=0;whiteSpace=wrap;html=1;sketch=1;fillStyle=auto;fontSize=15;gradientColor=none;" parent="0qLtHgP30Eh2IL9KS39c-41" vertex="1">
          <mxGeometry x="270" width="90" height="40" as="geometry" />
        </mxCell>
        <mxCell id="0qLtHgP30Eh2IL9KS39c-46" value="" style="rounded=0;whiteSpace=wrap;html=1;sketch=1;fillStyle=auto;fontSize=15;gradientColor=none;" parent="0qLtHgP30Eh2IL9KS39c-41" vertex="1">
          <mxGeometry x="360" width="90" height="40" as="geometry" />
        </mxCell>
        <mxCell id="0qLtHgP30Eh2IL9KS39c-47" value="" style="group;sketch=1;" parent="1" vertex="1" connectable="0">
          <mxGeometry x="140" y="410" width="450" height="40" as="geometry" />
        </mxCell>
        <mxCell id="0qLtHgP30Eh2IL9KS39c-48" value="1" style="rounded=0;whiteSpace=wrap;html=1;sketch=1;fillStyle=auto;fontSize=15;gradientColor=none;" parent="0qLtHgP30Eh2IL9KS39c-47" vertex="1">
          <mxGeometry width="90" height="40" as="geometry" />
        </mxCell>
        <mxCell id="0qLtHgP30Eh2IL9KS39c-49" value="MooN" style="rounded=0;whiteSpace=wrap;html=1;sketch=1;fillStyle=auto;fontSize=15;gradientColor=none;" parent="0qLtHgP30Eh2IL9KS39c-47" vertex="1">
          <mxGeometry x="90" width="90" height="40" as="geometry" />
        </mxCell>
        <mxCell id="0qLtHgP30Eh2IL9KS39c-50" value="1000" style="rounded=0;whiteSpace=wrap;html=1;sketch=1;fillStyle=auto;fontSize=15;gradientColor=none;" parent="0qLtHgP30Eh2IL9KS39c-47" vertex="1">
          <mxGeometry x="180" width="90" height="40" as="geometry" />
        </mxCell>
        <mxCell id="0qLtHgP30Eh2IL9KS39c-51" value="100" style="rounded=0;whiteSpace=wrap;html=1;sketch=1;fillStyle=auto;fontSize=15;gradientColor=none;" parent="0qLtHgP30Eh2IL9KS39c-47" vertex="1">
          <mxGeometry x="270" width="90" height="40" as="geometry" />
        </mxCell>
        <mxCell id="0qLtHgP30Eh2IL9KS39c-52" value="" style="rounded=0;whiteSpace=wrap;html=1;sketch=1;fillStyle=auto;fontSize=15;gradientColor=none;" parent="0qLtHgP30Eh2IL9KS39c-47" vertex="1">
          <mxGeometry x="360" width="90" height="40" as="geometry" />
        </mxCell>
        <mxCell id="0qLtHgP30Eh2IL9KS39c-53" value="" style="group;sketch=1;" parent="1" vertex="1" connectable="0">
          <mxGeometry x="140" y="480" width="450" height="40" as="geometry" />
        </mxCell>
        <mxCell id="0qLtHgP30Eh2IL9KS39c-54" value="1" style="rounded=0;whiteSpace=wrap;html=1;sketch=1;fillStyle=auto;fontSize=15;gradientColor=none;" parent="0qLtHgP30Eh2IL9KS39c-53" vertex="1">
          <mxGeometry width="90" height="40" as="geometry" />
        </mxCell>
        <mxCell id="0qLtHgP30Eh2IL9KS39c-55" value="MooN" style="rounded=0;whiteSpace=wrap;html=1;sketch=1;fillStyle=auto;fontSize=15;gradientColor=none;" parent="0qLtHgP30Eh2IL9KS39c-53" vertex="1">
          <mxGeometry x="90" width="90" height="40" as="geometry" />
        </mxCell>
        <mxCell id="0qLtHgP30Eh2IL9KS39c-56" value="1500" style="rounded=0;whiteSpace=wrap;html=1;sketch=1;fillStyle=auto;fontSize=15;gradientColor=none;" parent="0qLtHgP30Eh2IL9KS39c-53" vertex="1">
          <mxGeometry x="180" width="90" height="40" as="geometry" />
        </mxCell>
        <mxCell id="0qLtHgP30Eh2IL9KS39c-57" value="200" style="rounded=0;whiteSpace=wrap;html=1;sketch=1;fillStyle=auto;fontSize=15;gradientColor=none;" parent="0qLtHgP30Eh2IL9KS39c-53" vertex="1">
          <mxGeometry x="270" width="90" height="40" as="geometry" />
        </mxCell>
        <mxCell id="0qLtHgP30Eh2IL9KS39c-58" value="" style="rounded=0;whiteSpace=wrap;html=1;sketch=1;fillStyle=auto;fontSize=15;gradientColor=none;" parent="0qLtHgP30Eh2IL9KS39c-53" vertex="1">
          <mxGeometry x="360" width="90" height="40" as="geometry" />
        </mxCell>
        <mxCell id="0qLtHgP30Eh2IL9KS39c-59" value="" style="group;sketch=1;" parent="1" vertex="1" connectable="0">
          <mxGeometry x="140" y="555" width="450" height="40" as="geometry" />
        </mxCell>
        <mxCell id="0qLtHgP30Eh2IL9KS39c-60" value="1" style="rounded=0;whiteSpace=wrap;html=1;sketch=1;fillStyle=auto;fontSize=15;gradientColor=none;" parent="0qLtHgP30Eh2IL9KS39c-59" vertex="1">
          <mxGeometry width="90" height="40" as="geometry" />
        </mxCell>
        <mxCell id="0qLtHgP30Eh2IL9KS39c-61" value="MooN" style="rounded=0;whiteSpace=wrap;html=1;sketch=1;fillStyle=auto;fontSize=15;gradientColor=none;" parent="0qLtHgP30Eh2IL9KS39c-59" vertex="1">
          <mxGeometry x="90" width="90" height="40" as="geometry" />
        </mxCell>
        <mxCell id="0qLtHgP30Eh2IL9KS39c-62" value="1800" style="rounded=0;whiteSpace=wrap;html=1;sketch=1;fillStyle=auto;fontSize=15;gradientColor=none;" parent="0qLtHgP30Eh2IL9KS39c-59" vertex="1">
          <mxGeometry x="180" width="90" height="40" as="geometry" />
        </mxCell>
        <mxCell id="0qLtHgP30Eh2IL9KS39c-63" value="200" style="rounded=0;whiteSpace=wrap;html=1;sketch=1;fillStyle=auto;fontSize=15;gradientColor=none;" parent="0qLtHgP30Eh2IL9KS39c-59" vertex="1">
          <mxGeometry x="270" width="90" height="40" as="geometry" />
        </mxCell>
        <mxCell id="0qLtHgP30Eh2IL9KS39c-64" value="" style="rounded=0;whiteSpace=wrap;html=1;sketch=1;fillStyle=auto;fontSize=15;gradientColor=none;" parent="0qLtHgP30Eh2IL9KS39c-59" vertex="1">
          <mxGeometry x="360" width="90" height="40" as="geometry" />
        </mxCell>
        <mxCell id="0qLtHgP30Eh2IL9KS39c-65" style="edgeStyle=orthogonalEdgeStyle;rounded=0;orthogonalLoop=1;jettySize=auto;html=1;entryX=0;entryY=0.5;entryDx=0;entryDy=0;fontSize=16;" parent="1" source="0qLtHgP30Eh2IL9KS39c-64" target="0qLtHgP30Eh2IL9KS39c-54" edge="1">
          <mxGeometry relative="1" as="geometry">
            <Array as="points">
              <mxPoint x="545" y="540" />
              <mxPoint x="120" y="540" />
              <mxPoint x="120" y="500" />
            </Array>
          </mxGeometry>
        </mxCell>
        <mxCell id="0qLtHgP30Eh2IL9KS39c-66" style="edgeStyle=orthogonalEdgeStyle;rounded=0;orthogonalLoop=1;jettySize=auto;html=1;entryX=0;entryY=0.5;entryDx=0;entryDy=0;fontSize=16;" parent="1" source="0qLtHgP30Eh2IL9KS39c-58" target="0qLtHgP30Eh2IL9KS39c-48" edge="1">
          <mxGeometry relative="1" as="geometry">
            <Array as="points">
              <mxPoint x="545" y="470" />
              <mxPoint x="120" y="470" />
              <mxPoint x="120" y="430" />
            </Array>
          </mxGeometry>
        </mxCell>
        <mxCell id="0qLtHgP30Eh2IL9KS39c-67" style="edgeStyle=orthogonalEdgeStyle;rounded=0;orthogonalLoop=1;jettySize=auto;html=1;entryX=0;entryY=0.5;entryDx=0;entryDy=0;fontSize=16;" parent="1" source="0qLtHgP30Eh2IL9KS39c-52" target="0qLtHgP30Eh2IL9KS39c-42" edge="1">
          <mxGeometry relative="1" as="geometry">
            <Array as="points">
              <mxPoint x="545" y="390" />
              <mxPoint x="120" y="390" />
              <mxPoint x="120" y="358" />
            </Array>
          </mxGeometry>
        </mxCell>
        <mxCell id="0qLtHgP30Eh2IL9KS39c-68" style="edgeStyle=orthogonalEdgeStyle;rounded=0;orthogonalLoop=1;jettySize=auto;html=1;entryX=0;entryY=0.5;entryDx=0;entryDy=0;fontSize=16;" parent="1" source="0qLtHgP30Eh2IL9KS39c-46" target="0qLtHgP30Eh2IL9KS39c-34" edge="1">
          <mxGeometry relative="1" as="geometry">
            <Array as="points">
              <mxPoint x="545" y="320" />
              <mxPoint x="120" y="320" />
              <mxPoint x="120" y="283" />
            </Array>
          </mxGeometry>
        </mxCell>
        <mxCell id="0qLtHgP30Eh2IL9KS39c-69" value="当前最新版本" style="text;html=1;align=center;verticalAlign=middle;resizable=0;points=[];autosize=1;strokeColor=none;fillColor=none;fontSize=16;" parent="1" vertex="1">
          <mxGeometry x="620" y="560" width="120" height="30" as="geometry" />
        </mxCell>
        <mxCell id="0qLtHgP30Eh2IL9KS39c-70" value="" style="shape=curlyBracket;whiteSpace=wrap;html=1;rounded=1;labelPosition=left;verticalLabelPosition=middle;align=right;verticalAlign=middle;sketch=1;fontSize=16;" parent="1" vertex="1">
          <mxGeometry x="70" y="200" width="20" height="300" as="geometry" />
        </mxCell>
        <mxCell id="0qLtHgP30Eh2IL9KS39c-71" value="Undo&lt;br&gt;日志" style="text;html=1;align=center;verticalAlign=middle;resizable=0;points=[];autosize=1;strokeColor=none;fillColor=none;fontSize=16;" parent="1" vertex="1">
          <mxGeometry y="325" width="60" height="50" as="geometry" />
        </mxCell>
        <mxCell id="0qLtHgP30Eh2IL9KS39c-75" value="" style="shape=curlyBracket;whiteSpace=wrap;html=1;rounded=1;labelPosition=left;verticalLabelPosition=middle;align=right;verticalAlign=middle;sketch=1;fontSize=16;" parent="1" vertex="1">
          <mxGeometry x="-30" y="200" width="30" height="380" as="geometry" />
        </mxCell>
        <mxCell id="0qLtHgP30Eh2IL9KS39c-76" value="版本链" style="text;html=1;align=center;verticalAlign=middle;resizable=0;points=[];autosize=1;strokeColor=none;fillColor=none;fontSize=16;" parent="1" vertex="1">
          <mxGeometry x="-100" y="375" width="70" height="30" as="geometry" />
        </mxCell>
        <mxCell id="3zVsceI3X5wX8iPluOR--1" value="&lt;h1&gt;注：&lt;/h1&gt;&lt;p&gt;&lt;font style=&quot;font-size: 14px;&quot;&gt;事务1与事务2首次的 update 语句是为了生在事务id(trx_id)，对任意的表执行更新操作即可&lt;/font&gt;&lt;/p&gt;" style="text;html=1;strokeColor=none;fillColor=none;spacing=5;spacingTop=-20;whiteSpace=wrap;overflow=hidden;rounded=0;" parent="1" vertex="1">
          <mxGeometry x="951.25" y="1170" width="260" height="110" as="geometry" />
        </mxCell>
        <mxCell id="3zVsceI3X5wX8iPluOR--2" value="时间点5" style="rounded=1;whiteSpace=wrap;html=1;sketch=1;fontSize=16;fillColor=#e1d5e7;strokeColor=#9673a6;" parent="1" vertex="1">
          <mxGeometry x="850" y="540" width="80" height="40" as="geometry" />
        </mxCell>
        <mxCell id="3zVsceI3X5wX8iPluOR--3" value="时间点6" style="rounded=1;whiteSpace=wrap;html=1;sketch=1;fontSize=16;fillColor=#e1d5e7;strokeColor=#9673a6;" parent="1" vertex="1">
          <mxGeometry x="850" y="680" width="80" height="40" as="geometry" />
        </mxCell>
        <mxCell id="3zVsceI3X5wX8iPluOR--8" value="update account set balance = balance + 200 where id = 1;" style="rounded=1;whiteSpace=wrap;html=1;sketch=1;fontSize=16;fillColor=#dae8fc;strokeColor=#6c8ebf;" parent="1" vertex="1">
          <mxGeometry x="978.75" y="680" width="232.5" height="40" as="geometry" />
        </mxCell>
        <mxCell id="3zVsceI3X5wX8iPluOR--9" value="commit" style="rounded=1;whiteSpace=wrap;html=1;sketch=1;fontSize=16;fillColor=#dae8fc;strokeColor=#6c8ebf;" parent="1" vertex="1">
          <mxGeometry x="1042.5" y="725" width="105" height="35" as="geometry" />
        </mxCell>
        <mxCell id="3zVsceI3X5wX8iPluOR--13" value="时间点7" style="rounded=1;whiteSpace=wrap;html=1;sketch=1;fontSize=16;fillColor=#e1d5e7;strokeColor=#9673a6;" parent="1" vertex="1">
          <mxGeometry x="850" y="820" width="80" height="40" as="geometry" />
        </mxCell>
        <mxCell id="3zVsceI3X5wX8iPluOR--14" value="时间点8" style="rounded=1;whiteSpace=wrap;html=1;sketch=1;fontSize=16;fillColor=#e1d5e7;strokeColor=#9673a6;" parent="1" vertex="1">
          <mxGeometry x="850" y="960" width="80" height="40" as="geometry" />
        </mxCell>
        <mxCell id="0qLtHgP30Eh2IL9KS39c-15" value="begin" style="rounded=1;whiteSpace=wrap;html=1;sketch=1;fontSize=16;fillColor=#ffe6cc;strokeColor=#d79b00;" parent="1" vertex="1">
          <mxGeometry x="1547.5" y="129" width="90" height="30" as="geometry" />
        </mxCell>
        <mxCell id="0qLtHgP30Eh2IL9KS39c-29" value="commit" style="rounded=1;whiteSpace=wrap;html=1;sketch=1;fontSize=16;fillColor=#ffe6cc;strokeColor=#d79b00;" parent="1" vertex="1">
          <mxGeometry x="1540" y="420" width="105" height="35" as="geometry" />
        </mxCell>
        <mxCell id="0qLtHgP30Eh2IL9KS39c-25" value="update account set balance = balance + 500 where id = 1;" style="rounded=1;whiteSpace=wrap;html=1;sketch=1;fontSize=16;fillColor=#ffe6cc;strokeColor=#d79b00;" parent="1" vertex="1">
          <mxGeometry x="1476.25" y="375" width="232.5" height="40" as="geometry" />
        </mxCell>
        <mxCell id="3zVsceI3X5wX8iPluOR--15" value="update account set balance = balance + 300 where id = 1;" style="rounded=1;whiteSpace=wrap;html=1;sketch=1;fontSize=16;fillColor=#d5e8d4;strokeColor=#82b366;" parent="1" vertex="1">
          <mxGeometry x="1222.5" y="970" width="232.5" height="40" as="geometry" />
        </mxCell>
        <mxCell id="3zVsceI3X5wX8iPluOR--17" value="" style="endArrow=none;dashed=1;html=1;dashPattern=1 3;strokeWidth=6;rounded=0;fontSize=14;" parent="1" edge="1">
          <mxGeometry width="50" height="50" relative="1" as="geometry">
            <mxPoint x="1740" y="1171" as="sourcePoint" />
            <mxPoint x="1740" y="40" as="targetPoint" />
          </mxGeometry>
        </mxCell>
        <mxCell id="3zVsceI3X5wX8iPluOR--18" value="可重复读隔离级别 MVCC 可见性算法" style="text;html=1;strokeColor=none;fillColor=none;align=center;verticalAlign=middle;whiteSpace=wrap;rounded=0;fontSize=14;" parent="1" vertex="1">
          <mxGeometry x="1900" width="250" height="30" as="geometry" />
        </mxCell>
        <mxCell id="0qLtHgP30Eh2IL9KS39c-13" value="begin" style="rounded=1;whiteSpace=wrap;html=1;sketch=1;fontSize=16;fillColor=#dae8fc;strokeColor=#6c8ebf;" parent="1" vertex="1">
          <mxGeometry x="1050" y="130" width="90" height="30" as="geometry" />
        </mxCell>
        <mxCell id="3zVsceI3X5wX8iPluOR--6" value="update account set balance = balance + 300 where id = 1;" style="rounded=1;whiteSpace=wrap;html=1;sketch=1;fontSize=16;fillColor=#dae8fc;strokeColor=#6c8ebf;" parent="1" vertex="1">
          <mxGeometry x="978.75" y="630" width="232.5" height="40" as="geometry" />
        </mxCell>
        <mxCell id="0qLtHgP30Eh2IL9KS39c-14" value="begin" style="rounded=1;whiteSpace=wrap;html=1;sketch=1;fontSize=16;fillColor=#d5e8d4;strokeColor=#82b366;" parent="1" vertex="1">
          <mxGeometry x="1292.5" y="129" width="90" height="30" as="geometry" />
        </mxCell>
        <mxCell id="0qLtHgP30Eh2IL9KS39c-24" value="update 语句" style="rounded=1;whiteSpace=wrap;html=1;sketch=1;fontSize=16;fillColor=#d5e8d4;strokeColor=#82b366;" parent="1" vertex="1">
          <mxGeometry x="1285" y="301.5" width="105" height="35" as="geometry" />
        </mxCell>
        <mxCell id="3zVsceI3X5wX8iPluOR--10" value="update account set balance = balance + 500 where id = 1;" style="rounded=1;whiteSpace=wrap;html=1;sketch=1;fontSize=16;fillColor=#d5e8d4;strokeColor=#82b366;" parent="1" vertex="1">
          <mxGeometry x="1222.5" y="920" width="232.5" height="40" as="geometry" />
        </mxCell>
        <mxCell id="3zVsceI3X5wX8iPluOR--16" value="commit" style="rounded=1;whiteSpace=wrap;html=1;sketch=1;fontSize=16;fillColor=#d5e8d4;strokeColor=#82b366;" parent="1" vertex="1">
          <mxGeometry x="1286.25" y="1020" width="105" height="35" as="geometry" />
        </mxCell>
        <mxCell id="3zVsceI3X5wX8iPluOR--19" value="事务1&lt;br style=&quot;border-color: var(--border-color); font-size: 16px;&quot;&gt;&lt;span style=&quot;font-size: 16px;&quot;&gt;trx_id = 100&lt;/span&gt;" style="rounded=0;whiteSpace=wrap;html=1;fontSize=14;fillColor=#dae8fc;strokeColor=#6c8ebf;sketch=1;curveFitting=1;jiggle=2;" parent="1" vertex="1">
          <mxGeometry x="992.5" y="40" width="205" height="60" as="geometry" />
        </mxCell>
        <mxCell id="3zVsceI3X5wX8iPluOR--20" value="事务2&lt;br style=&quot;border-color: var(--border-color); font-size: 16px;&quot;&gt;&lt;span style=&quot;font-size: 16px;&quot;&gt;trx_id = 200&lt;/span&gt;" style="rounded=0;whiteSpace=wrap;html=1;fontSize=14;fillColor=#d5e8d4;strokeColor=#82b366;sketch=1;curveFitting=1;jiggle=2;" parent="1" vertex="1">
          <mxGeometry x="1236.25" y="40" width="205" height="60" as="geometry" />
        </mxCell>
        <mxCell id="3zVsceI3X5wX8iPluOR--21" value="事务3&lt;br style=&quot;border-color: var(--border-color); font-size: 16px;&quot;&gt;&lt;span style=&quot;font-size: 16px;&quot;&gt;trx_id = 300&lt;/span&gt;" style="rounded=0;whiteSpace=wrap;html=1;fontSize=14;fillColor=#ffe6cc;strokeColor=#d79b00;sketch=1;curveFitting=1;jiggle=2;" parent="1" vertex="1">
          <mxGeometry x="1490" y="39" width="205" height="60" as="geometry" />
        </mxCell>
        <mxCell id="3zVsceI3X5wX8iPluOR--23" value="" style="line;strokeWidth=2;direction=south;html=1;sketch=1;fontSize=14;" parent="1" vertex="1">
          <mxGeometry x="1456.25" y="40" width="10" height="1130" as="geometry" />
        </mxCell>
        <mxCell id="3zVsceI3X5wX8iPluOR--24" value="" style="line;strokeWidth=2;direction=south;html=1;sketch=1;fontSize=14;" parent="1" vertex="1">
          <mxGeometry x="1212.5" y="39" width="10" height="1130" as="geometry" />
        </mxCell>
        <mxCell id="Q289Mc9IiTVFGNPaQK_M-1" value="&lt;font style=&quot;font-size: 16px;&quot;&gt;已提交的事务&lt;/font&gt;" style="rounded=0;whiteSpace=wrap;html=1;sketch=0;fillColor=#d5e8d4;strokeColor=#82b366;" parent="1" vertex="1">
          <mxGeometry x="10" y="760" width="140" height="60" as="geometry" />
        </mxCell>
        <mxCell id="Q289Mc9IiTVFGNPaQK_M-2" value="&lt;font style=&quot;font-size: 16px;&quot;&gt;未提交与已提交的事务&lt;/font&gt;" style="rounded=0;whiteSpace=wrap;html=1;sketch=0;fillColor=#fff2cc;strokeColor=#d6b656;" parent="1" vertex="1">
          <mxGeometry x="195" y="760" width="195" height="60" as="geometry" />
        </mxCell>
        <mxCell id="Q289Mc9IiTVFGNPaQK_M-3" value="&lt;font style=&quot;font-size: 16px;&quot;&gt;未开始的事务&lt;/font&gt;" style="rounded=0;whiteSpace=wrap;html=1;sketch=0;fillColor=#f8cecc;strokeColor=#b85450;" parent="1" vertex="1">
          <mxGeometry x="440" y="760" width="140" height="60" as="geometry" />
        </mxCell>
        <mxCell id="Q289Mc9IiTVFGNPaQK_M-6" value="100 &amp;lt;= trx_id &amp;lt;= 300" style="shape=partialRectangle;whiteSpace=wrap;html=1;bottom=0;top=0;fillColor=none;sketch=0;fontSize=16;strokeWidth=2;" parent="1" vertex="1">
          <mxGeometry x="195" y="700" width="195" height="60" as="geometry" />
        </mxCell>
        <mxCell id="Q289Mc9IiTVFGNPaQK_M-7" value="min_trx_id = 100" style="text;html=1;align=center;verticalAlign=middle;resizable=0;points=[];autosize=1;strokeColor=none;fillColor=none;fontSize=16;" parent="1" vertex="1">
          <mxGeometry x="120" y="650" width="140" height="30" as="geometry" />
        </mxCell>
        <mxCell id="Q289Mc9IiTVFGNPaQK_M-9" value="max_trx_id &amp;gt; 300" style="text;html=1;align=center;verticalAlign=middle;resizable=0;points=[];autosize=1;strokeColor=none;fillColor=none;fontSize=16;" parent="1" vertex="1">
          <mxGeometry x="330" y="650" width="150" height="30" as="geometry" />
        </mxCell>
        <mxCell id="Q289Mc9IiTVFGNPaQK_M-10" value="&lt;b&gt;&lt;font color=&quot;#ff3399&quot;&gt;当前事务的readview&lt;br&gt;&amp;nbsp;[100,200], 300&lt;/font&gt;&lt;/b&gt;" style="text;html=1;align=center;verticalAlign=middle;resizable=0;points=[];autosize=1;strokeColor=none;fillColor=none;fontSize=16;" parent="1" vertex="1">
          <mxGeometry x="530" y="640" width="170" height="50" as="geometry" />
        </mxCell>
        <mxCell id="Q289Mc9IiTVFGNPaQK_M-11" value="查询事务1&lt;br&gt;trx_id = 400" style="rounded=0;whiteSpace=wrap;html=1;sketch=1;strokeWidth=2;fontSize=16;fillColor=#fff2cc;strokeColor=#d6b656;" parent="1" vertex="1">
          <mxGeometry x="1826.25" y="40" width="120" height="60" as="geometry" />
        </mxCell>
        <mxCell id="Q289Mc9IiTVFGNPaQK_M-12" value="查询事务2&lt;br&gt;trx_id = 500" style="rounded=0;whiteSpace=wrap;html=1;sketch=1;strokeWidth=2;fontSize=16;fillColor=#f8cecc;strokeColor=#b85450;" parent="1" vertex="1">
          <mxGeometry x="2095" y="40" width="120" height="60" as="geometry" />
        </mxCell>
        <mxCell id="Q289Mc9IiTVFGNPaQK_M-13" value="查询事务3&lt;br&gt;trx_id = 600" style="rounded=0;whiteSpace=wrap;html=1;sketch=1;strokeWidth=2;fontSize=16;fillColor=#e1d5e7;strokeColor=#9673a6;" parent="1" vertex="1">
          <mxGeometry x="2371" y="40" width="120" height="60" as="geometry" />
        </mxCell>
        <mxCell id="Q289Mc9IiTVFGNPaQK_M-16" value="" style="line;strokeWidth=2;direction=south;html=1;sketch=0;fontSize=16;" parent="1" vertex="1">
          <mxGeometry x="2020" y="39" width="10" height="1130" as="geometry" />
        </mxCell>
        <mxCell id="Q289Mc9IiTVFGNPaQK_M-17" value="" style="line;strokeWidth=2;direction=south;html=1;sketch=1;fontSize=16;" parent="1" vertex="1">
          <mxGeometry x="2290" y="30" width="10" height="1130" as="geometry" />
        </mxCell>
        <mxCell id="Q289Mc9IiTVFGNPaQK_M-18" value="begin" style="rounded=1;whiteSpace=wrap;html=1;sketch=1;fontSize=16;fillColor=#ffe6cc;strokeColor=#d79b00;" parent="1" vertex="1">
          <mxGeometry x="1841.25" y="130" width="90" height="30" as="geometry" />
        </mxCell>
        <mxCell id="Q289Mc9IiTVFGNPaQK_M-19" value="begin" style="rounded=1;whiteSpace=wrap;html=1;sketch=1;fontSize=16;fillColor=#f8cecc;strokeColor=#b85450;" parent="1" vertex="1">
          <mxGeometry x="2110" y="129" width="90" height="30" as="geometry" />
        </mxCell>
        <mxCell id="Q289Mc9IiTVFGNPaQK_M-20" value="begin" style="rounded=1;whiteSpace=wrap;html=1;sketch=1;fontSize=16;fillColor=#e1d5e7;strokeColor=#9673a6;" parent="1" vertex="1">
          <mxGeometry x="2385" y="125" width="90" height="30" as="geometry" />
        </mxCell>
        <mxCell id="Q289Mc9IiTVFGNPaQK_M-21" value="读已提交隔离级别 MVCC 可见性算法" style="text;html=1;strokeColor=none;fillColor=none;align=center;verticalAlign=middle;whiteSpace=wrap;rounded=0;fontSize=14;" parent="1" vertex="1">
          <mxGeometry x="2301.25" width="250" height="30" as="geometry" />
        </mxCell>
        <mxCell id="Q289Mc9IiTVFGNPaQK_M-22" value="select balance from account where id = 1;" style="rounded=1;whiteSpace=wrap;html=1;sketch=1;fontSize=16;fillColor=#fff2cc;strokeColor=#d6b656;" parent="1" vertex="1">
          <mxGeometry x="1756.25" y="510" width="232.5" height="40" as="geometry" />
        </mxCell>
        <mxCell id="Q289Mc9IiTVFGNPaQK_M-24" value="select balance from account where id = 1;" style="rounded=1;whiteSpace=wrap;html=1;sketch=1;fontSize=16;fillColor=#f8cecc;strokeColor=#b85450;" parent="1" vertex="1">
          <mxGeometry x="2038.75" y="800" width="232.5" height="40" as="geometry" />
        </mxCell>
        <mxCell id="Q289Mc9IiTVFGNPaQK_M-27" value="" style="line;strokeWidth=2;html=1;perimeter=backbonePerimeter;points=[];outlineConnect=0;sketch=0;fontSize=16;" parent="1" vertex="1">
          <mxGeometry x="960" y="360" width="1570" height="10" as="geometry" />
        </mxCell>
        <mxCell id="Q289Mc9IiTVFGNPaQK_M-28" value="" style="line;strokeWidth=2;html=1;perimeter=backbonePerimeter;points=[];outlineConnect=0;sketch=0;fontSize=16;" parent="1" vertex="1">
          <mxGeometry x="960" y="492" width="1570" height="10" as="geometry" />
        </mxCell>
        <mxCell id="Q289Mc9IiTVFGNPaQK_M-29" value="" style="line;strokeWidth=2;html=1;perimeter=backbonePerimeter;points=[];outlineConnect=0;sketch=0;fontSize=16;" parent="1" vertex="1">
          <mxGeometry x="960" y="277.5" width="1570" height="10" as="geometry" />
        </mxCell>
        <mxCell id="Q289Mc9IiTVFGNPaQK_M-30" value="" style="line;strokeWidth=2;html=1;perimeter=backbonePerimeter;points=[];outlineConnect=0;sketch=0;fontSize=16;" parent="1" vertex="1">
          <mxGeometry x="960" y="610" width="1570" height="10" as="geometry" />
        </mxCell>
        <mxCell id="Q289Mc9IiTVFGNPaQK_M-31" value="&lt;b&gt;&lt;font color=&quot;#ff0000&quot;&gt;当前的 readview: [100, 200] 700&lt;/font&gt;&lt;/b&gt;" style="text;html=1;align=center;verticalAlign=middle;resizable=0;points=[];autosize=1;strokeColor=none;fillColor=none;fontSize=16;" parent="1" vertex="1">
          <mxGeometry x="1756.25" y="555" width="260" height="30" as="geometry" />
        </mxCell>
        <mxCell id="Q289Mc9IiTVFGNPaQK_M-32" value="&lt;font color=&quot;#000000&quot;&gt;查询&amp;nbsp;&lt;/font&gt;&lt;span style=&quot;color: rgb(0, 0, 0);&quot;&gt;balance&amp;nbsp;结果是：500&lt;/span&gt;" style="text;html=1;align=center;verticalAlign=middle;resizable=0;points=[];autosize=1;strokeColor=none;fillColor=none;fontSize=16;fontColor=#FF0000;" parent="1" vertex="1">
          <mxGeometry x="1756.25" y="580" width="210" height="30" as="geometry" />
        </mxCell>
        <mxCell id="Q289Mc9IiTVFGNPaQK_M-33" value="select balance from account where id = 1;" style="rounded=1;whiteSpace=wrap;html=1;sketch=1;fontSize=16;fillColor=#fff2cc;strokeColor=#d6b656;" parent="1" vertex="1">
          <mxGeometry x="1770" y="800" width="232.5" height="40" as="geometry" />
        </mxCell>
        <mxCell id="Q289Mc9IiTVFGNPaQK_M-35" value="" style="line;strokeWidth=2;html=1;perimeter=backbonePerimeter;points=[];outlineConnect=0;sketch=0;fontSize=16;" parent="1" vertex="1">
          <mxGeometry x="960" y="785" width="1570" height="10" as="geometry" />
        </mxCell>
        <mxCell id="Q289Mc9IiTVFGNPaQK_M-36" value="&lt;b&gt;&lt;font color=&quot;#ff0000&quot;&gt;当前的 readview: [100, 200] 700&lt;/font&gt;&lt;/b&gt;" style="text;html=1;align=center;verticalAlign=middle;resizable=0;points=[];autosize=1;strokeColor=none;fillColor=none;fontSize=16;" parent="1" vertex="1">
          <mxGeometry x="1760" y="840" width="260" height="30" as="geometry" />
        </mxCell>
        <mxCell id="Q289Mc9IiTVFGNPaQK_M-37" value="&lt;font color=&quot;#000000&quot;&gt;查询&amp;nbsp;&lt;/font&gt;&lt;span style=&quot;color: rgb(0, 0, 0);&quot;&gt;balance&amp;nbsp;结果是：500&lt;/span&gt;" style="text;html=1;align=center;verticalAlign=middle;resizable=0;points=[];autosize=1;strokeColor=none;fillColor=none;fontSize=16;fontColor=#FF0000;" parent="1" vertex="1">
          <mxGeometry x="1763" y="870" width="210" height="30" as="geometry" />
        </mxCell>
        <mxCell id="Q289Mc9IiTVFGNPaQK_M-38" value="" style="line;strokeWidth=2;html=1;perimeter=backbonePerimeter;points=[];outlineConnect=0;sketch=0;fontSize=16;" parent="1" vertex="1">
          <mxGeometry x="970" y="900" width="1570" height="10" as="geometry" />
        </mxCell>
        <mxCell id="Q289Mc9IiTVFGNPaQK_M-39" value="" style="line;strokeWidth=2;html=1;perimeter=backbonePerimeter;points=[];outlineConnect=0;sketch=0;fontSize=16;" parent="1" vertex="1">
          <mxGeometry x="992.5" y="1080" width="1570" height="10" as="geometry" />
        </mxCell>
        <mxCell id="Q289Mc9IiTVFGNPaQK_M-41" value="时间点9" style="rounded=1;whiteSpace=wrap;html=1;sketch=1;fontSize=16;fillColor=#e1d5e7;strokeColor=#9673a6;" parent="1" vertex="1">
          <mxGeometry x="850" y="1100" width="80" height="40" as="geometry" />
        </mxCell>
        <mxCell id="Q289Mc9IiTVFGNPaQK_M-42" value="&lt;b&gt;&lt;font color=&quot;#ff0000&quot;&gt;当前的 readview: [200] 700&lt;/font&gt;&lt;/b&gt;" style="text;html=1;align=center;verticalAlign=middle;resizable=0;points=[];autosize=1;strokeColor=none;fillColor=none;fontSize=16;" parent="1" vertex="1">
          <mxGeometry x="2031" y="843" width="220" height="30" as="geometry" />
        </mxCell>
        <mxCell id="Q289Mc9IiTVFGNPaQK_M-43" value="&lt;font color=&quot;#000000&quot;&gt;查询&amp;nbsp;&lt;/font&gt;&lt;span style=&quot;color: rgb(0, 0, 0);&quot;&gt;balance&amp;nbsp;结果是：1000&lt;/span&gt;" style="text;html=1;align=center;verticalAlign=middle;resizable=0;points=[];autosize=1;strokeColor=none;fillColor=none;fontSize=16;fontColor=#FF0000;" parent="1" vertex="1">
          <mxGeometry x="2030" y="870" width="220" height="30" as="geometry" />
        </mxCell>
        <mxCell id="Q289Mc9IiTVFGNPaQK_M-44" value="select balance from account where id = 1;" style="rounded=1;whiteSpace=wrap;html=1;sketch=1;fontSize=16;fillColor=#fff2cc;strokeColor=#d6b656;" parent="1" vertex="1">
          <mxGeometry x="1770" y="1090" width="232.5" height="40" as="geometry" />
        </mxCell>
        <mxCell id="Q289Mc9IiTVFGNPaQK_M-45" value="&lt;b&gt;&lt;font color=&quot;#ff0000&quot;&gt;当前的 readview: [100, 200] 700&lt;/font&gt;&lt;/b&gt;" style="text;html=1;align=center;verticalAlign=middle;resizable=0;points=[];autosize=1;strokeColor=none;fillColor=none;fontSize=16;" parent="1" vertex="1">
          <mxGeometry x="1756.25" y="1130" width="260" height="30" as="geometry" />
        </mxCell>
        <mxCell id="Q289Mc9IiTVFGNPaQK_M-46" value="&lt;font color=&quot;#000000&quot;&gt;查询&amp;nbsp;&lt;/font&gt;&lt;span style=&quot;color: rgb(0, 0, 0);&quot;&gt;balance&amp;nbsp;结果是：500&lt;/span&gt;" style="text;html=1;align=center;verticalAlign=middle;resizable=0;points=[];autosize=1;strokeColor=none;fillColor=none;fontSize=16;fontColor=#FF0000;" parent="1" vertex="1">
          <mxGeometry x="1760" y="1150" width="210" height="30" as="geometry" />
        </mxCell>
        <mxCell id="Q289Mc9IiTVFGNPaQK_M-47" value="select balance from account where id = 1;" style="rounded=1;whiteSpace=wrap;html=1;sketch=1;fontSize=16;fillColor=#f8cecc;strokeColor=#b85450;" parent="1" vertex="1">
          <mxGeometry x="2038.75" y="1090" width="232.5" height="40" as="geometry" />
        </mxCell>
        <mxCell id="Q289Mc9IiTVFGNPaQK_M-48" value="&lt;b&gt;&lt;font color=&quot;#ff0000&quot;&gt;当前的 readview: [200] 700&lt;/font&gt;&lt;/b&gt;" style="text;html=1;align=center;verticalAlign=middle;resizable=0;points=[];autosize=1;strokeColor=none;fillColor=none;fontSize=16;" parent="1" vertex="1">
          <mxGeometry x="2030" y="1130" width="220" height="30" as="geometry" />
        </mxCell>
        <mxCell id="Q289Mc9IiTVFGNPaQK_M-49" value="&lt;font color=&quot;#000000&quot;&gt;查询&amp;nbsp;&lt;/font&gt;&lt;span style=&quot;color: rgb(0, 0, 0);&quot;&gt;balance&amp;nbsp;结果是：1000&lt;/span&gt;" style="text;html=1;align=center;verticalAlign=middle;resizable=0;points=[];autosize=1;strokeColor=none;fillColor=none;fontSize=16;fontColor=#FF0000;" parent="1" vertex="1">
          <mxGeometry x="2030" y="1150" width="220" height="30" as="geometry" />
        </mxCell>
        <mxCell id="Q289Mc9IiTVFGNPaQK_M-50" value="&lt;font color=&quot;#0000ff&quot;&gt;&lt;b&gt;当前 balance&amp;nbsp;结果是：500&lt;/b&gt;&lt;/font&gt;" style="text;html=1;align=center;verticalAlign=middle;resizable=0;points=[];autosize=1;strokeColor=none;fillColor=none;fontSize=16;fontColor=#FF0000;" parent="1" vertex="1">
          <mxGeometry x="1476.25" y="455" width="210" height="30" as="geometry" />
        </mxCell>
        <mxCell id="Q289Mc9IiTVFGNPaQK_M-51" value="&lt;font color=&quot;#0000ff&quot;&gt;&lt;b&gt;当前 balance&amp;nbsp;结果是：1000&lt;/b&gt;&lt;/font&gt;" style="text;html=1;align=center;verticalAlign=middle;resizable=0;points=[];autosize=1;strokeColor=none;fillColor=none;fontSize=16;fontColor=#FF0000;" parent="1" vertex="1">
          <mxGeometry x="985" y="760" width="220" height="30" as="geometry" />
        </mxCell>
        <mxCell id="Q289Mc9IiTVFGNPaQK_M-52" value="&lt;font color=&quot;#0000ff&quot;&gt;&lt;b&gt;当前 balance&amp;nbsp;结果是：1800&lt;/b&gt;&lt;/font&gt;" style="text;html=1;align=center;verticalAlign=middle;resizable=0;points=[];autosize=1;strokeColor=none;fillColor=none;fontSize=16;fontColor=#FF0000;" parent="1" vertex="1">
          <mxGeometry x="1228.75" y="1055" width="220" height="30" as="geometry" />
        </mxCell>
        <mxCell id="Q289Mc9IiTVFGNPaQK_M-53" value="select balance from account where id = 1;" style="rounded=1;whiteSpace=wrap;html=1;sketch=1;fontSize=16;fillColor=#e1d5e7;strokeColor=#9673a6;" parent="1" vertex="1">
          <mxGeometry x="2313.75" y="510" width="232.5" height="40" as="geometry" />
        </mxCell>
        <mxCell id="Q289Mc9IiTVFGNPaQK_M-54" value="&lt;b&gt;&lt;font color=&quot;#ff0000&quot;&gt;当前的 readview: [100, 200] 700&lt;/font&gt;&lt;/b&gt;" style="text;html=1;align=center;verticalAlign=middle;resizable=0;points=[];autosize=1;strokeColor=none;fillColor=none;fontSize=16;" parent="1" vertex="1">
          <mxGeometry x="2302.5" y="555" width="260" height="30" as="geometry" />
        </mxCell>
        <mxCell id="Q289Mc9IiTVFGNPaQK_M-55" value="&lt;font color=&quot;#000000&quot;&gt;查询&amp;nbsp;&lt;/font&gt;&lt;span style=&quot;color: rgb(0, 0, 0);&quot;&gt;balance&amp;nbsp;结果是：500&lt;/span&gt;" style="text;html=1;align=center;verticalAlign=middle;resizable=0;points=[];autosize=1;strokeColor=none;fillColor=none;fontSize=16;fontColor=#FF0000;" parent="1" vertex="1">
          <mxGeometry x="2310" y="580" width="210" height="30" as="geometry" />
        </mxCell>
        <mxCell id="Q289Mc9IiTVFGNPaQK_M-56" value="select balance from account where id = 1;" style="rounded=1;whiteSpace=wrap;html=1;sketch=1;fontSize=16;fillColor=#e1d5e7;strokeColor=#9673a6;" parent="1" vertex="1">
          <mxGeometry x="2310" y="800" width="232.5" height="40" as="geometry" />
        </mxCell>
        <mxCell id="Q289Mc9IiTVFGNPaQK_M-57" value="&lt;b&gt;&lt;font color=&quot;#ff0000&quot;&gt;当前的 readview: [200] 700&lt;/font&gt;&lt;/b&gt;" style="text;html=1;align=center;verticalAlign=middle;resizable=0;points=[];autosize=1;strokeColor=none;fillColor=none;fontSize=16;" parent="1" vertex="1">
          <mxGeometry x="2305" y="843" width="220" height="30" as="geometry" />
        </mxCell>
        <mxCell id="Q289Mc9IiTVFGNPaQK_M-58" value="&lt;font color=&quot;#000000&quot;&gt;查询&amp;nbsp;&lt;/font&gt;&lt;span style=&quot;color: rgb(0, 0, 0);&quot;&gt;balance&amp;nbsp;结果是：1000&lt;/span&gt;" style="text;html=1;align=center;verticalAlign=middle;resizable=0;points=[];autosize=1;strokeColor=none;fillColor=none;fontSize=16;fontColor=#FF0000;" parent="1" vertex="1">
          <mxGeometry x="2305" y="870" width="220" height="30" as="geometry" />
        </mxCell>
        <mxCell id="Q289Mc9IiTVFGNPaQK_M-59" value="select balance from account where id = 1;" style="rounded=1;whiteSpace=wrap;html=1;sketch=1;fontSize=16;fillColor=#e1d5e7;strokeColor=#9673a6;" parent="1" vertex="1">
          <mxGeometry x="2316.25" y="1090" width="232.5" height="40" as="geometry" />
        </mxCell>
        <mxCell id="Q289Mc9IiTVFGNPaQK_M-60" value="&lt;b&gt;&lt;font color=&quot;#ff0000&quot;&gt;当前的 readview: [ ] 700&lt;/font&gt;&lt;/b&gt;" style="text;html=1;align=center;verticalAlign=middle;resizable=0;points=[];autosize=1;strokeColor=none;fillColor=none;fontSize=16;" parent="1" vertex="1">
          <mxGeometry x="2310" y="1130" width="200" height="30" as="geometry" />
        </mxCell>
        <mxCell id="Q289Mc9IiTVFGNPaQK_M-61" value="&lt;font color=&quot;#000000&quot;&gt;查询&amp;nbsp;&lt;/font&gt;&lt;span style=&quot;color: rgb(0, 0, 0);&quot;&gt;balance&amp;nbsp;结果是：1800&lt;/span&gt;" style="text;html=1;align=center;verticalAlign=middle;resizable=0;points=[];autosize=1;strokeColor=none;fillColor=none;fontSize=16;fontColor=#FF0000;" parent="1" vertex="1">
          <mxGeometry x="2310" y="1150" width="220" height="30" as="geometry" />
        </mxCell>
        <mxCell id="Q289Mc9IiTVFGNPaQK_M-63" style="edgeStyle=orthogonalEdgeStyle;rounded=0;orthogonalLoop=1;jettySize=auto;html=1;strokeWidth=1;fontSize=16;fontColor=#0000FF;curved=1;" parent="1" source="Q289Mc9IiTVFGNPaQK_M-62" target="Q289Mc9IiTVFGNPaQK_M-46" edge="1">
          <mxGeometry relative="1" as="geometry" />
        </mxCell>
        <mxCell id="Q289Mc9IiTVFGNPaQK_M-62" value="假设再查询id为其他的记录，此时的 readview 还是 [100, 200] 300" style="shape=note;whiteSpace=wrap;html=1;backgroundOutline=1;darkOpacity=0.05;sketch=0;strokeWidth=2;fontSize=16;fillColor=#fff2cc;strokeColor=#d6b656;align=left;" parent="1" vertex="1">
          <mxGeometry x="1676.25" y="1230" width="270" height="100" as="geometry" />
        </mxCell>
        <mxCell id="10XfThxbCA74bScCRpUW-8" style="edgeStyle=orthogonalEdgeStyle;curved=1;rounded=0;orthogonalLoop=1;jettySize=auto;html=1;entryX=0.856;entryY=1.02;entryDx=0;entryDy=0;entryPerimeter=0;fontSize=14;" parent="1" source="10XfThxbCA74bScCRpUW-1" target="10XfThxbCA74bScCRpUW-5" edge="1">
          <mxGeometry relative="1" as="geometry" />
        </mxCell>
        <mxCell id="10XfThxbCA74bScCRpUW-1" value="&lt;div style=&quot;text-align: left;&quot;&gt;&lt;span style=&quot;font-size: 14px; background-color: initial;&quot;&gt;max_trx_id：表示生成 ReadView 时系统中应该分配给下一个事务的 id 值。&lt;/span&gt;&lt;/div&gt;&lt;font style=&quot;&quot;&gt;&lt;div style=&quot;font-size: 14px; text-align: left;&quot;&gt;&lt;span style=&quot;background-color: initial;&quot;&gt;注意 max_trx_id 并不是 m_ids 中的最大值，事务 id 是递增分配的。&lt;/span&gt;&lt;/div&gt;&lt;div style=&quot;font-size: 14px; text-align: left;&quot;&gt;&lt;span style=&quot;background-color: initial;&quot;&gt;假设上面示例事务id为300的已提交，所以 max_trx_id 是大于 300 的值，&lt;/span&gt;&lt;/div&gt;&lt;div style=&quot;text-align: left;&quot;&gt;&lt;span style=&quot;font-size: 14px; background-color: initial;&quot;&gt;如果此时有查询事务，则&lt;/span&gt;&lt;span style=&quot;background-color: initial;&quot;&gt;&lt;font style=&quot;font-size: 14px;&quot;&gt;生成该 ReadView 的事务 id（即creator_trx_id）为 300&lt;/font&gt;&lt;/span&gt;&lt;/div&gt;&lt;/font&gt;" style="text;html=1;align=center;verticalAlign=middle;resizable=0;points=[];autosize=1;strokeColor=none;fillColor=none;" parent="1" vertex="1">
          <mxGeometry x="135" y="980" width="520" height="80" as="geometry" />
        </mxCell>
        <mxCell id="10XfThxbCA74bScCRpUW-7" style="edgeStyle=orthogonalEdgeStyle;rounded=0;orthogonalLoop=1;jettySize=auto;html=1;entryX=0.25;entryY=1.06;entryDx=0;entryDy=0;entryPerimeter=0;fontSize=14;curved=1;" parent="1" source="10XfThxbCA74bScCRpUW-4" target="10XfThxbCA74bScCRpUW-5" edge="1">
          <mxGeometry relative="1" as="geometry">
            <Array as="points">
              <mxPoint x="215" y="970" />
              <mxPoint x="325" y="970" />
            </Array>
          </mxGeometry>
        </mxCell>
        <mxCell id="10XfThxbCA74bScCRpUW-4" value="m_ids：表示在生成 ReadView 时当前系统中活跃的读写事务的事务 id 列表" style="text;html=1;align=center;verticalAlign=middle;resizable=0;points=[];autosize=1;strokeColor=none;fillColor=none;fontSize=14;" parent="1" vertex="1">
          <mxGeometry x="80" y="860" width="490" height="30" as="geometry" />
        </mxCell>
        <mxCell id="10XfThxbCA74bScCRpUW-5" value="&lt;b&gt;&lt;font color=&quot;#ff3399&quot;&gt;事务 readview 示例&lt;br&gt;&amp;nbsp;[100,200],&amp;nbsp; &amp;nbsp; &amp;nbsp; &amp;nbsp;300&lt;/font&gt;&lt;/b&gt;" style="text;html=1;align=center;verticalAlign=middle;resizable=0;points=[];autosize=1;strokeColor=none;fillColor=none;fontSize=16;" parent="1" vertex="1">
          <mxGeometry x="285" y="900" width="160" height="50" as="geometry" />
        </mxCell>
      </root>
    </mxGraphModel>
  </diagram>
</mxfile>
